# xmcd
#
# Track frame offsets:
#	150
#	12204
#	24921
#	37326
#	50832
#	64415
#	76718
#	90222
#	104821
#	117604
#	131320
#	146217
#	160795
#	175181
#	191132
#	206111
#	222374
#	237820
#	253046
#	269914
#	287495
#	303885
#	321658
#	340062
#
# Disc length: 4771 seconds
#
# Revision: 0
# Processed by: cddbd v1.5.1PL2 Copyright (c) Steve Scherf et al.
# Submitted via: dBpowerAMP V4.0
#
DISCID=7012a118
DTITLE=Diana Ross and The Supremes - No# 1s
DYEAR=2005
DGENRE=Oldies
TTITLE0=Where Did Our Love Go
TTITLE1=Baby Love
TTITLE2=Come See About Me
TTITLE3=Stop! In The Name Of Love
TTITLE4=Back In My Arms Again
TTITLE5=I Hear A Symphony
TTITLE6=You Cant Hurry Love
TTITLE7=You Keep Me Hanging On
TTITLE8=Love Is Here Now Youre Gone
TTITLE9=Happening
TTITLE10=Reflections 
TTITLE11=Love Child
TTITLE12=Im Gonna Make You Love Me
TTITLE13=Someday We`ll Be Together
TTITLE14=Stoned Love
TTITLE15=Aint No Mountain High Enough
TTITLE16=Touch Me in The Morning
TTITLE17=Do You Know Where Your Going To
TTITLE18=Love Hangover
TTITLE19=The Boss
TTITLE20=Upside Down
TTITLE21=I`m Coming Out
TTITLE22=Endless Love 
TTITLE23=You Keep Me Hanging On (Almighty Mix)
EXTD=
EXTT0=
EXTT1=
EXTT2=
EXTT3=
EXTT4=
EXTT5=
EXTT6=
EXTT7=
EXTT8=
EXTT9=
EXTT10=
EXTT11=
EXTT12=
EXTT13=
EXTT14=
EXTT15=
EXTT16=
EXTT17=
EXTT18=
EXTT19=
EXTT20=
EXTT21=
EXTT22=
EXTT23=
PLAYORDER=
